<svg width="20" height="20" viewBox="0 0 20 20" fill="none" xmlns="http://www.w3.org/2000/svg">
<path d="M12.7001 18.5583H12.5918C8.89176 18.5583 7.10843 17.1 6.80009 13.8333C6.76676 13.4917 7.01676 13.1833 7.36676 13.15C7.70009 13.1166 8.01676 13.375 8.05009 13.7167C8.29176 16.3333 9.52509 17.3083 12.6001 17.3083H12.7084C16.1001 17.3083 17.3001 16.1083 17.3001 12.7167V7.28332C17.3001 3.89165 16.1001 2.69165 12.7084 2.69165H12.6001C9.50843 2.69165 8.27509 3.68332 8.05009 6.34998C8.00843 6.69165 7.71676 6.94998 7.36676 6.91665C7.01676 6.89165 6.76676 6.58332 6.79176 6.24165C7.07509 2.92498 8.86676 1.44165 12.5918 1.44165H12.7001C16.7918 1.44165 18.5418 3.19165 18.5418 7.28332V12.7167C18.5418 16.8083 16.7918 18.5583 12.7001 18.5583Z" fill="#231F20"/>
<path d="M12.4999 10.625H3.0166C2.67493 10.625 2.3916 10.3417 2.3916 10C2.3916 9.65833 2.67493 9.375 3.0166 9.375H12.4999C12.8416 9.375 13.1249 9.65833 13.1249 10C13.1249 10.3417 12.8416 10.625 12.4999 10.625Z" fill="#231F20"/>
<path d="M4.87454 13.4166C4.71621 13.4166 4.55788 13.3583 4.43288 13.2333L1.64121 10.4416C1.39954 10.2 1.39954 9.79997 1.64121 9.55831L4.43288 6.76664C4.67454 6.52497 5.07454 6.52497 5.31621 6.76664C5.55788 7.0083 5.55788 7.40831 5.31621 7.64997L2.96621 9.99997L5.31621 12.35C5.55788 12.5916 5.55788 12.9916 5.31621 13.2333C5.19954 13.3583 5.03288 13.4166 4.87454 13.4166Z" fill="#231F20"/>
</svg>
